<?xml version="1.0" encoding="UTF-8"?>
<!DOCTYPE svg PUBLIC "-//W3C//DTD SVG 1.1//EN" "http://www.w3.org/Graphics/SVG/1.1/DTD/svg11.dtd">
<!-- Creator: CorelDRAW 2020 (64 Bit) -->
<svg xmlns="http://www.w3.org/2000/svg" xml:space="preserve" width="34.9242mm" height="13.4934mm" version="1.1" style="shape-rendering:geometricPrecision; text-rendering:geometricPrecision; image-rendering:optimizeQuality; fill-rule:evenodd; clip-rule:evenodd"
viewBox="0 0 3492.42 1349.34"
 xmlns:xlink="http://www.w3.org/1999/xlink"
 xmlns:xodm="http://www.corel.com/coreldraw/odm/2003">
 <defs>
  <style type="text/css">
   <![CDATA[
    .str1 {stroke:#6D28D9;stroke-width:26.46;stroke-miterlimit:22.9256}
    .str0 {stroke:#6D28D9;stroke-width:105.83;stroke-miterlimit:22.9256}
    .str2 {stroke:#333333;stroke-width:34.4;stroke-miterlimit:22.9256}
    .str3 {stroke:#6D28D9;stroke-width:34.4;stroke-miterlimit:22.9256}
    .fil0 {fill:none}
    .fil4 {fill:none;fill-rule:nonzero}
    .fil1 {fill:#6D28D9}
    .fil2 {fill:#333333;fill-rule:nonzero}
    .fil3 {fill:#6D28D9;fill-rule:nonzero}
   ]]>
  </style>
 </defs>
 <g id="Camada_x0020_1">
  <metadata id="CorelCorpID_0Corel-Layer"/>
  <g id="_1510605046880">
   <path class="fil0 str0" d="M1172.89 462.12c-127.96,-102.94 -255.93,-205.89 -383.89,-308.83 -24.84,-18.78 -49.67,-37.57 -68.42,-42.47 -18.75,-4.9 -31.42,4.08 -44.09,13.07 -182.03,134.17 -364.07,268.33 -457.06,348.39 -93,80.05 -96.96,106 -93.71,133.93 3.25,27.92 13.7,57.83 47.18,72.78 33.48,14.96 89.97,14.94 118.29,17.17 28.31,2.22 28.45,6.68 28.59,11.14 0.51,164.09 1.03,328.19 1.54,492.28 3.12,10.38 6.23,20.75 12.44,27.47 6.2,6.72 15.49,9.79 24.79,12.86 931.54,-4.91 1863.08,-9.83 2794.62,-14.74"/>
   <ellipse class="fil1 str1" cx="1170.58" cy="460.2" rx="36.4" ry="39.43"/>
   <path class="fil2" d="M743.67 894.88l-155.19 0 -26.66 75.72 -63.46 0 132.79 -371.16 70.39 0 132.78 371.16 -63.99 0 -26.66 -75.72zm-17.07 -49.6l-60.26 -172.24 -60.79 172.24 121.05 0z"/>
   <polygon id="1" class="fil2" points="952.71,575.98 952.71,970.6 891.92,970.6 891.92,575.98 "/>
   <path id="2" class="fil2" d="M1298.8 676.77l0 293.83 -60.8 0 0 -34.66c-9.59,12.08 -22.13,21.59 -37.59,28.53 -15.47,6.93 -31.91,10.4 -49.33,10.4 -23.11,0 -43.82,-4.8 -62.12,-14.4 -18.31,-9.6 -32.71,-23.82 -43.2,-42.66 -10.49,-18.85 -15.73,-41.6 -15.73,-68.26l0 -172.78 60.26 0 0 163.71c0,26.31 6.58,46.49 19.73,60.53 13.15,14.04 31.11,21.06 53.86,21.06 22.75,0 40.79,-7.02 54.13,-21.06 13.33,-14.04 19.99,-34.22 19.99,-60.53l0 -163.71 60.8 0z"/>
   <path id="3" class="fil2" d="M1497.17 671.97c22.75,0 42.93,4.53 60.53,13.6 17.6,9.06 31.37,20.35 41.33,33.86l0 -42.66 61.32 0 0 298.63c0,27.02 -5.69,51.1 -17.06,72.26 -11.38,21.15 -27.82,37.77 -49.33,49.86 -21.51,12.09 -47.19,18.13 -77.06,18.13 -39.82,0 -72.88,-9.33 -99.19,-28 -26.3,-18.66 -41.24,-43.99 -44.79,-75.99l60.26 0c4.62,15.29 14.49,27.64 29.6,37.06 15.1,9.43 33.15,14.14 54.12,14.14 24.53,0 44.35,-7.47 59.46,-22.4 15.11,-14.93 22.67,-36.62 22.67,-65.06l0 -49.06c-10.31,13.86 -24.27,25.51 -41.87,34.93 -17.59,9.42 -37.59,14.13 -59.99,14.13 -25.6,0 -48.97,-6.49 -70.12,-19.46 -21.16,-12.98 -37.87,-31.11 -50.13,-54.4 -12.27,-23.28 -18.4,-49.68 -18.4,-79.19 0,-29.51 6.13,-55.64 18.4,-78.39 12.26,-22.75 28.97,-40.44 50.13,-53.06 21.15,-12.62 44.52,-18.93 70.12,-18.93zm101.86 151.45c0,-20.27 -4.18,-37.86 -12.54,-52.8 -8.35,-14.93 -19.28,-26.3 -32.79,-34.13 -13.51,-7.82 -28.09,-11.73 -43.73,-11.73 -15.64,0 -30.22,3.82 -43.73,11.47 -13.51,7.64 -24.44,18.84 -32.79,33.59 -8.36,14.76 -12.54,32.27 -12.54,52.53 0,20.27 4.18,38.04 12.54,53.33 8.35,15.29 19.37,26.93 33.06,34.93 13.69,8 28.17,12 43.46,12 15.64,0 30.22,-3.91 43.73,-11.74 13.51,-7.82 24.44,-19.28 32.79,-34.39 8.36,-15.11 12.54,-32.8 12.54,-53.06z"/>
   <path id="4" class="fil2" d="M1720.08 822.35c0,-29.51 6.13,-55.64 18.4,-78.39 12.26,-22.75 28.97,-40.44 50.13,-53.06 21.15,-12.62 44.52,-18.93 70.12,-18.93 23.11,0 43.28,4.53 60.53,13.6 17.24,9.06 31.02,20.35 41.33,33.86l0 -42.66 61.32 0 0 293.83 -61.32 0 0 -43.73c-10.31,13.87 -24.36,25.42 -42.13,34.66 -17.78,9.25 -38.04,13.87 -60.8,13.87 -25.24,0 -48.35,-6.49 -69.32,-19.46 -20.98,-12.98 -37.6,-31.11 -49.86,-54.4 -12.27,-23.28 -18.4,-49.68 -18.4,-79.19zm240.51 1.07c0,-20.27 -4.18,-37.86 -12.54,-52.8 -8.35,-14.93 -19.28,-26.3 -32.79,-34.13 -13.51,-7.82 -28.09,-11.73 -43.73,-11.73 -15.64,0 -30.22,3.82 -43.73,11.47 -13.51,7.64 -24.44,18.84 -32.79,33.59 -8.36,14.76 -12.54,32.27 -12.54,52.53 0,20.27 4.18,38.04 12.54,53.33 8.35,15.29 19.37,26.93 33.06,34.93 13.69,8 28.17,12 43.46,12 15.64,0 30.22,-3.91 43.73,-11.74 13.51,-7.82 24.44,-19.28 32.79,-34.39 8.36,-15.11 12.54,-32.8 12.54,-53.06z"/>
   <path id="5" class="fil2" d="M2210.16 823.42c0,-30.22 6.13,-56.8 18.4,-79.73 12.26,-22.93 29.24,-40.61 50.93,-53.06 21.68,-12.44 46.57,-18.66 74.65,-18.66 35.56,0 64.97,8.44 88.26,25.33 23.29,16.89 39.02,40.97 47.19,72.26l-65.59 0c-5.33,-14.58 -13.86,-25.96 -25.59,-34.13 -11.74,-8.18 -26.49,-12.27 -44.27,-12.27 -24.88,0 -44.7,8.8 -59.46,26.4 -14.75,17.6 -22.13,42.22 -22.13,73.86 0,31.64 7.38,56.35 22.13,74.12 14.76,17.78 34.58,26.67 59.46,26.67 35.2,0 58.49,-15.47 69.86,-46.4l65.59 0c-8.53,29.86 -24.53,53.59 -47.99,71.19 -23.46,17.6 -52.62,26.4 -87.46,26.4 -28.08,0 -52.97,-6.31 -74.65,-18.93 -21.69,-12.62 -38.67,-30.4 -50.93,-53.33 -12.27,-22.93 -18.4,-49.5 -18.4,-79.72z"/>
   <path id="6" class="fil2" d="M2677.84 975.4c-27.73,0 -52.8,-6.31 -75.19,-18.93 -22.4,-12.62 -40,-30.4 -52.8,-53.33 -12.8,-22.93 -19.2,-49.5 -19.2,-79.72 0,-29.87 6.58,-56.35 19.74,-79.46 13.15,-23.11 31.1,-40.88 53.86,-53.33 22.75,-12.44 48.17,-18.66 76.25,-18.66 28.09,0 53.51,6.22 76.26,18.66 22.75,12.45 40.71,30.22 53.86,53.33 13.15,23.11 19.73,49.59 19.73,79.46 0,29.86 -6.75,56.35 -20.26,79.45 -13.51,23.11 -31.91,40.98 -55.2,53.6 -23.28,12.62 -48.97,18.93 -77.05,18.93zm0 -52.79c15.64,0 30.3,-3.74 43.99,-11.2 13.69,-7.47 24.8,-18.67 33.33,-33.6 8.53,-14.93 12.8,-33.06 12.8,-54.39 0,-21.33 -4.09,-39.38 -12.27,-54.13 -8.17,-14.75 -19.02,-25.86 -32.53,-33.33 -13.5,-7.46 -28.08,-11.2 -43.72,-11.2 -15.65,0 -30.13,3.74 -43.46,11.2 -13.34,7.47 -23.91,18.58 -31.73,33.33 -7.83,14.75 -11.74,32.8 -11.74,54.13 0,31.64 8.09,56.08 24.27,73.32 16.17,17.24 36.53,25.87 61.06,25.87z"/>
   <path id="7" class="fil2" d="M3246.31 671.97c23.1,0 43.81,4.8 62.12,14.4 18.31,9.6 32.71,23.82 43.2,42.66 10.48,18.84 15.73,41.59 15.73,68.26l0 173.31 -60.26 0 0 -164.25c0,-26.31 -6.58,-46.48 -19.73,-60.52 -13.16,-14.05 -31.11,-21.07 -53.86,-21.07 -22.76,0 -40.8,7.02 -54.13,21.07 -13.33,14.04 -20,34.21 -20,60.52l0 164.25 -60.26 0 0 -164.25c0,-26.31 -6.57,-46.48 -19.73,-60.52 -13.15,-14.05 -31.1,-21.07 -53.86,-21.07 -22.75,0 -40.79,7.02 -54.12,21.07 -13.34,14.04 -20,34.21 -20,60.52l0 164.25 -60.79 0 0 -293.83 60.79 0 0 33.59c9.95,-12.08 22.57,-21.5 37.86,-28.26 15.29,-6.75 31.64,-10.13 49.06,-10.13 23.46,0 44.44,4.98 62.93,14.93 18.48,9.95 32.7,24.35 42.66,43.2 8.89,-17.78 22.75,-31.91 41.59,-42.4 18.85,-10.49 39.11,-15.73 60.8,-15.73z"/>
   <path id="8" class="fil3" d="M2126.44 974.33c-11.03,0 -20.27,-3.73 -27.73,-11.2 -7.47,-7.46 -11.2,-16.7 -11.2,-27.73 0,-11.02 3.73,-20.26 11.2,-27.73 7.46,-7.46 16.7,-11.19 27.73,-11.19 10.66,0 19.73,3.73 27.19,11.19 7.47,7.47 11.2,16.71 11.2,27.73 0,11.03 -3.73,20.27 -11.2,27.73 -7.46,7.47 -16.53,11.2 -27.19,11.2z"/>
   <path id="9" class="fil4 str2" d="M743.67 894.88l-155.19 0 -26.66 75.72 -63.46 0 132.79 -371.16 70.39 0 132.78 371.16 -63.99 0 -26.66 -75.72zm-17.07 -49.6l-60.26 -172.24 -60.79 172.24 121.05 0z"/>
   <polygon id="10" class="fil4 str2" points="952.71,575.98 952.71,970.6 891.92,970.6 891.92,575.98 "/>
   <path id="11" class="fil4 str2" d="M1298.8 676.77l0 293.83 -60.8 0 0 -34.66c-9.59,12.08 -22.13,21.59 -37.59,28.53 -15.47,6.93 -31.91,10.4 -49.33,10.4 -23.11,0 -43.82,-4.8 -62.12,-14.4 -18.31,-9.6 -32.71,-23.82 -43.2,-42.66 -10.49,-18.85 -15.73,-41.6 -15.73,-68.26l0 -172.78 60.26 0 0 163.71c0,26.31 6.58,46.49 19.73,60.53 13.15,14.04 31.11,21.06 53.86,21.06 22.75,0 40.79,-7.02 54.13,-21.06 13.33,-14.04 19.99,-34.22 19.99,-60.53l0 -163.71 60.8 0z"/>
   <path id="12" class="fil4 str2" d="M1497.17 671.97c22.75,0 42.93,4.53 60.53,13.6 17.6,9.06 31.37,20.35 41.33,33.86l0 -42.66 61.32 0 0 298.63c0,27.02 -5.69,51.1 -17.06,72.26 -11.38,21.15 -27.82,37.77 -49.33,49.86 -21.51,12.09 -47.19,18.13 -77.06,18.13 -39.82,0 -72.88,-9.33 -99.19,-28 -26.3,-18.66 -41.24,-43.99 -44.79,-75.99l60.26 0c4.62,15.29 14.49,27.64 29.6,37.06 15.1,9.43 33.15,14.14 54.12,14.14 24.53,0 44.35,-7.47 59.46,-22.4 15.11,-14.93 22.67,-36.62 22.67,-65.06l0 -49.06c-10.31,13.86 -24.27,25.51 -41.87,34.93 -17.59,9.42 -37.59,14.13 -59.99,14.13 -25.6,0 -48.97,-6.49 -70.12,-19.46 -21.16,-12.98 -37.87,-31.11 -50.13,-54.4 -12.27,-23.28 -18.4,-49.68 -18.4,-79.19 0,-29.51 6.13,-55.64 18.4,-78.39 12.26,-22.75 28.97,-40.44 50.13,-53.06 21.15,-12.62 44.52,-18.93 70.12,-18.93zm101.86 151.45c0,-20.27 -4.18,-37.86 -12.54,-52.8 -8.35,-14.93 -19.28,-26.3 -32.79,-34.13 -13.51,-7.82 -28.09,-11.73 -43.73,-11.73 -15.64,0 -30.22,3.82 -43.73,11.47 -13.51,7.64 -24.44,18.84 -32.79,33.59 -8.36,14.76 -12.54,32.27 -12.54,52.53 0,20.27 4.18,38.04 12.54,53.33 8.35,15.29 19.37,26.93 33.06,34.93 13.69,8 28.17,12 43.46,12 15.64,0 30.22,-3.91 43.73,-11.74 13.51,-7.82 24.44,-19.28 32.79,-34.39 8.36,-15.11 12.54,-32.8 12.54,-53.06z"/>
   <path id="13" class="fil4 str2" d="M1720.08 822.35c0,-29.51 6.13,-55.64 18.4,-78.39 12.26,-22.75 28.97,-40.44 50.13,-53.06 21.15,-12.62 44.52,-18.93 70.12,-18.93 23.11,0 43.28,4.53 60.53,13.6 17.24,9.06 31.02,20.35 41.33,33.86l0 -42.66 61.32 0 0 293.83 -61.32 0 0 -43.73c-10.31,13.87 -24.36,25.42 -42.13,34.66 -17.78,9.25 -38.04,13.87 -60.8,13.87 -25.24,0 -48.35,-6.49 -69.32,-19.46 -20.98,-12.98 -37.6,-31.11 -49.86,-54.4 -12.27,-23.28 -18.4,-49.68 -18.4,-79.19zm240.51 1.07c0,-20.27 -4.18,-37.86 -12.54,-52.8 -8.35,-14.93 -19.28,-26.3 -32.79,-34.13 -13.51,-7.82 -28.09,-11.73 -43.73,-11.73 -15.64,0 -30.22,3.82 -43.73,11.47 -13.51,7.64 -24.44,18.84 -32.79,33.59 -8.36,14.76 -12.54,32.27 -12.54,52.53 0,20.27 4.18,38.04 12.54,53.33 8.35,15.29 19.37,26.93 33.06,34.93 13.69,8 28.17,12 43.46,12 15.64,0 30.22,-3.91 43.73,-11.74 13.51,-7.82 24.44,-19.28 32.79,-34.39 8.36,-15.11 12.54,-32.8 12.54,-53.06z"/>
   <path id="14" class="fil4 str2" d="M2210.16 823.42c0,-30.22 6.13,-56.8 18.4,-79.73 12.26,-22.93 29.24,-40.61 50.93,-53.06 21.68,-12.44 46.57,-18.66 74.65,-18.66 35.56,0 64.97,8.44 88.26,25.33 23.29,16.89 39.02,40.97 47.19,72.26l-65.59 0c-5.33,-14.58 -13.86,-25.96 -25.59,-34.13 -11.74,-8.18 -26.49,-12.27 -44.27,-12.27 -24.88,0 -44.7,8.8 -59.46,26.4 -14.75,17.6 -22.13,42.22 -22.13,73.86 0,31.64 7.38,56.35 22.13,74.12 14.76,17.78 34.58,26.67 59.46,26.67 35.2,0 58.49,-15.47 69.86,-46.4l65.59 0c-8.53,29.86 -24.53,53.59 -47.99,71.19 -23.46,17.6 -52.62,26.4 -87.46,26.4 -28.08,0 -52.97,-6.31 -74.65,-18.93 -21.69,-12.62 -38.67,-30.4 -50.93,-53.33 -12.27,-22.93 -18.4,-49.5 -18.4,-79.72z"/>
   <path id="15" class="fil4 str2" d="M2677.84 975.4c-27.73,0 -52.8,-6.31 -75.19,-18.93 -22.4,-12.62 -40,-30.4 -52.8,-53.33 -12.8,-22.93 -19.2,-49.5 -19.2,-79.72 0,-29.87 6.58,-56.35 19.74,-79.46 13.15,-23.11 31.1,-40.88 53.86,-53.33 22.75,-12.44 48.17,-18.66 76.25,-18.66 28.09,0 53.51,6.22 76.26,18.66 22.75,12.45 40.71,30.22 53.86,53.33 13.15,23.11 19.73,49.59 19.73,79.46 0,29.86 -6.75,56.35 -20.26,79.45 -13.51,23.11 -31.91,40.98 -55.2,53.6 -23.28,12.62 -48.97,18.93 -77.05,18.93zm0 -52.79c15.64,0 30.3,-3.74 43.99,-11.2 13.69,-7.47 24.8,-18.67 33.33,-33.6 8.53,-14.93 12.8,-33.06 12.8,-54.39 0,-21.33 -4.09,-39.38 -12.27,-54.13 -8.17,-14.75 -19.02,-25.86 -32.53,-33.33 -13.5,-7.46 -28.08,-11.2 -43.72,-11.2 -15.65,0 -30.13,3.74 -43.46,11.2 -13.34,7.47 -23.91,18.58 -31.73,33.33 -7.83,14.75 -11.74,32.8 -11.74,54.13 0,31.64 8.09,56.08 24.27,73.32 16.17,17.24 36.53,25.87 61.06,25.87z"/>
   <path id="16" class="fil4 str2" d="M3246.31 671.97c23.1,0 43.81,4.8 62.12,14.4 18.31,9.6 32.71,23.82 43.2,42.66 10.48,18.84 15.73,41.59 15.73,68.26l0 173.31 -60.26 0 0 -164.25c0,-26.31 -6.58,-46.48 -19.73,-60.52 -13.16,-14.05 -31.11,-21.07 -53.86,-21.07 -22.76,0 -40.8,7.02 -54.13,21.07 -13.33,14.04 -20,34.21 -20,60.52l0 164.25 -60.26 0 0 -164.25c0,-26.31 -6.57,-46.48 -19.73,-60.52 -13.15,-14.05 -31.1,-21.07 -53.86,-21.07 -22.75,0 -40.79,7.02 -54.12,21.07 -13.34,14.04 -20,34.21 -20,60.52l0 164.25 -60.79 0 0 -293.83 60.79 0 0 33.59c9.95,-12.08 22.57,-21.5 37.86,-28.26 15.29,-6.75 31.64,-10.13 49.06,-10.13 23.46,0 44.44,4.98 62.93,14.93 18.48,9.95 32.7,24.35 42.66,43.2 8.89,-17.78 22.75,-31.91 41.59,-42.4 18.85,-10.49 39.11,-15.73 60.8,-15.73z"/>
   <path id="17" class="fil4 str3" d="M2126.44 974.33c-11.03,0 -20.27,-3.73 -27.73,-11.2 -7.47,-7.46 -11.2,-16.7 -11.2,-27.73 0,-11.02 3.73,-20.26 11.2,-27.73 7.46,-7.46 16.7,-11.19 27.73,-11.19 10.66,0 19.73,3.73 27.19,11.19 7.47,7.47 11.2,16.71 11.2,27.73 0,11.03 -3.73,20.27 -11.2,27.73 -7.46,7.47 -16.53,11.2 -27.19,11.2z"/>
  </g>
 </g>
</svg>
